<svg xmlns="http://www.w3.org/2000/svg" viewBox="0 0 288.49 126.72"><defs><style>.a{isolation:isolate;}.b{fill:#0b0b0b;}.c{fill:#101010;}.d{fill:#121212;}.e{fill:#151515;}.f{fill:#0a0a0a;}.g{fill:#0c0c0c;}.h{fill:#090909;}.i{fill:#131313;}.j{fill:#080808;}.k{fill:#171717;}.l{fill:#040404;}.m{fill:#1c1c1c;}.n{fill:#191919;}.o{fill:#202020;}.p{fill:#0f0f0f;}.q{fill:#1a1a1a;}.r{fill:#323232;}.s{fill:#1d1d1d;}.t{fill:#353535;}.u{fill:#1e1e1e;}.v{fill:#3c3c3c;}.w{fill:#2b2b2b;}.x{fill:#272727;}.y{fill:#2c2c2c;}.z{fill:#252525;}.aa{fill:#282828;}.ab{fill:#232323;}.ac{fill:#303030;}.ad{fill:#1b1b1b;}.ae{fill:#1f1f1f;}.af{fill:#181818;}.ag{fill:#212121;}.ah{fill:#2d2d2d;}.ai{fill:#262626;}.aj{fill:#2f2f2f;}.ak{fill:#222;}.al{fill:#242424;}.am{fill:#161616;}.an{fill:#2e2e2e;}.ao{fill:#111;}.ap{fill:#333;}.aq{fill:#231f20;}.ar{fill:#ffde17;}.ar,.as,.at{stroke:#231f20;stroke-miterlimit:10;stroke-width:1.5px;mix-blend-mode:multiply;}.as{fill:#ec008c;}.at{fill:#00aeef;}</style></defs><title>delphi</title><g class="a"><path class="b" d="M46.12,64.33c-.13,1.49.44,3-.15,4.48a.65.65,0,0,0,0,.39,4.42,4.42,0,0,1,.13,2.57,3.2,3.2,0,0,0,0,.54c0,.88-.11,1.76-.09,2.64a19.55,19.55,0,0,0,.26,2c0,.11.1.26,0,.34-.45.69-.18,1.4-.12,2.11.12,1.33.21,2.67.28,4,0,.62,0,1.25,0,1.87s-.1,1-.13,1.48c0,.26,0,.54,0,.8,0,.59-.08,1.18-.09,1.77,0,.23.15.45.16.68,0,.52,0,1,0,1.55,0,.17,0,.34,0,.51V94.3c0,.21,0,.43,0,.64,0,1.46.29,2.91,0,4.39a7.85,7.85,0,0,0,0,1.94c0,.66.12,1.32.11,2,0,1.22-.07,2.43-.1,3.64,0,.28.09.55.1.83a5.79,5.79,0,0,1-.13,2,5.42,5.42,0,0,0,.17,1.89,5.3,5.3,0,0,1,0,.69,4.29,4.29,0,0,1-.19.5,6.15,6.15,0,0,1-.86,1.58,1,1,0,0,0-.41.81l-.12-1c.12-.12.23-.26.37-.38.33-.27.49-.59.19-1s-.68-.16-1,.26l-1.2-.59c1,.09,1.05-.76,1.51-1.47l-1.63.38-.44-.06a1,1,0,0,1,.41-.35l1.24-.7c.43-.24.91-.5.54-1.09s-.84-.21-1.27-.08l-.72.24-.48-.12.48-.24c.89-.11,1-1.16,1.71-1.4l-.36-.7-1.71.42a13.19,13.19,0,0,1,1.42-1.07c.33-.19.58-.34.66-.75a3.08,3.08,0,0,1,.4-.93c.19-.32.17-.53-.22-.5s-.87.17-1.3.25l-.36.24H43l-1.32.48c.41-.34.77-.83,1.24-1,.74-.26,1.46-.9,1.4-1.53s-.31-1-.91-.71l-1,.47c-.23-.41.24-.4.36-.6a4.78,4.78,0,0,0,3-2.06c-.26-.21-.58-.64-.76-.59-.84.25-1.64.64-2.46,1l-.48.24-1.08.48c-.29.19-.57.4-.87.57s-.44.27-.56.2a.8.8,0,0,1-.33-.55,4.46,4.46,0,0,1,0-.82l.13-.72.32-.27c0,.35-.16.63-.17.9a3.54,3.54,0,0,0,.24.93c.22-.09.44-.18.65-.29s.34-.21.51-.31l.12-.12c.95-.61,1.92-1.19,2.83-1.86a5.49,5.49,0,0,0,1.08-1.17.51.51,0,0,0,0-.52c-.13-.17-.43-.38-.56-.32a15.45,15.45,0,0,0-1.53.75l-1.08.48c0-.13,0-.36,0-.4a5.18,5.18,0,0,1,1-.55,1.84,1.84,0,0,0,1.33-1.64c0-.2,0-.54-.17-.61-.31-.15-.67-.44-1,0h-.24c.07-.12.1-.3.2-.35.39-.19.82-.32,1.21-.51a.55.55,0,0,0,.27-.4c0-.46-.12-.92-.21-1.47l-1,.21-1,.37c0-.1-.1-.27-.08-.28a4.84,4.84,0,0,1,.78-.41c1-.34,1.32-.51,1.26-1.81,0-.87-.12-1-.91-.62a1.39,1.39,0,0,0-.21.11l-.24.12a1.84,1.84,0,0,1-.17-.28,11.63,11.63,0,0,1,1.46-1c.45-.22.68-.36.18-.76a.5.5,0,0,1-.1-.33c0-.42-.27-.52-.6-.46a4.49,4.49,0,0,0-.77.29h0l-.32-.06-.06-.17c.65-.32,1.29-.63,1.93-1,.21-.12.54-.32.54-.47a4.59,4.59,0,0,0-.3-2,2.27,2.27,0,0,1,0-1.7c.16-1,.19-1.37-.46-2,.15-.32.3-.61.41-.91a5.45,5.45,0,0,0,.36-1.17,1.33,1.33,0,0,0-.22-.81c0-.07-.43.07-.66.12l-.73.18-1.07.3,1.2-.84a4.22,4.22,0,0,0,.79-.41c.08-.06.1-.4,0-.44-.39-.25-.35-.56-.24-.93a4.64,4.64,0,0,0,.09-.77,3.15,3.15,0,0,0-2,.62l-.24.13-.24-.24.48-.24c.26-.1.51-.21.78-.29a2.54,2.54,0,0,0,1.48-1.51c.11-.24,0-.63.09-.84.33-.48.15-.83-.14-1.24l-.53.28-1.2.36-.24-.24h.24c.7-.38,1.56-.57,1.8-1.5a17.42,17.42,0,0,0,.39-1.77c0-.27-.16-.43-.47-.34l-.52.13-1.92.48c.15-.16.27-.37.45-.45.44-.18.92-.25,1.36-.44s1.24-.43,1.32-.78.42-1,.06-1.63-.54-.85-1.27-.42l-.84.24-.47.12c-.35-.47.29-.37.35-.6a3.5,3.5,0,0,1,.76-.46c.77-.25.87-1,1.1-1.58a.6.6,0,0,0-.75-.75,7.71,7.71,0,0,0-1.11.39l-.24.12-.48.12c-.25-.21-.25-.27.07-.42,1.07-.52,2.15-1,3.22-1.55.32-.16.49-.11.56.24a2.68,2.68,0,0,1-.16,2,1.18,1.18,0,0,0,0,.77C45.82,63.18,46,63.76,46.12,64.33Z" transform="translate(-22.27 -14.85)"/><path class="c" d="M43.71,63.94c.73-.43.86-.28,1.27.42s0,1.16-.06,1.63-.84.57-1.32.78-.92.26-1.36.44c-.18.08-.3.29-.45.45s-.39.19-.58.3a1.65,1.65,0,0,0-1,1.14A1.6,1.6,0,0,0,40.1,71a.86.86,0,0,0,.71.3,11,11,0,0,0,1.46-.62l.24.24-.12.12c-.58.35-1.19.68-1.75,1.06-.18.13-.27.41-.4.62v.12c-.56.29-.49.82-.48,1.32,0,.13,0,.32,0,.37.62.5.33,1.09.2,1.67a1.24,1.24,0,0,0,.07,1.56,1.06,1.06,0,0,0,1.41-.37l.68-.83.24-.12h1l-1.2.84v.12l-1.33,1a.69.69,0,0,0-.72.59l-.27,1.15c-.14.54.23.78.63.87a1.29,1.29,0,0,0,.76-.21,2.25,2.25,0,0,0,.44-.48c.29-.17.58-.36.88-.51C43.28,79.38,44,79,43.92,78c0-.11.08-.25.16-.35.29-.35.29-.64-.13-.87.23,0,.61-.19.66-.12a1.33,1.33,0,0,1,.22.81,5.45,5.45,0,0,1-.36,1.17c-.11.3-.26.59-.41.91.65.58.62,1,.46,2a2.27,2.27,0,0,0,0,1.7,4.59,4.59,0,0,1,.3,2c0,.15-.33.35-.54.47-.64.34-1.28.65-1.93,1l.06.17.32.06-.36.24-1.08.61-.36.23a2.33,2.33,0,0,0-1.24,2c0,.1.28.35.3.33.77-.47,1.51-1,2.26-1.47l.12-.11c1.1-.51,1.08-.19,1-1.89l-.64.08a4.49,4.49,0,0,1,.77-.29c.33-.06.59,0,.6.46a.5.5,0,0,0,.1.33c.5.4.27.54-.18.76a11.63,11.63,0,0,0-1.46,1,1.84,1.84,0,0,0,.17.28l-.48.25-1.44.95A1.48,1.48,0,0,0,40,92.34c.92.25,1.5-.39,2.17-.8a7.14,7.14,0,0,0,.81-.47c.79-.58.91-1,0-1.82a1.39,1.39,0,0,1,.21-.11c.79-.33.87-.25.91.62.06,1.3-.28,1.47-1.26,1.81a4.84,4.84,0,0,0-.78.41s0,.18.08.28L41,93a1.57,1.57,0,0,0-1,1.74.55.55,0,0,0,.78.29c.7-.46,1.4-.93,2.13-1.36a1.78,1.78,0,0,0,.76-1.4c0-.09-.25-.23-.38-.35h-.12l1-.21c.09.55.18,1,.21,1.47a.55.55,0,0,1-.27.4c-.39.19-.82.32-1.21.51-.1,0-.13.23-.2.35v.12c-.78.4-1.69.58-2.16,1.44-.2.22-.49.4-.59.66a3.49,3.49,0,0,0-.13,1,2.25,2.25,0,0,0,.87-.05c.43-.23.76-.69,1.2-.85a2.14,2.14,0,0,0,1.58-1.89l-.53-.42c.35-.4.71-.11,1,0,.13.07.18.41.17.61a1.84,1.84,0,0,1-1.33,1.64,5.18,5.18,0,0,0-1,.55c-.06,0,0,.27,0,.4l-1.2,1.08c-.4.08-.57.3-.58.75,0,.67.47.78.94.93-.17.1-.33.22-.51.31s-.43.2-.65.29a3.54,3.54,0,0,1-.24-.93c0-.27.17-.55.17-.9l-.32.27c-.09-.65-.18-1.3-.26-2a1.08,1.08,0,0,0,.06-1.26,1.89,1.89,0,0,1,0-1.13,2.63,2.63,0,0,0,.08-1.62A4.22,4.22,0,0,1,39.22,92a3.34,3.34,0,0,0,0-.94,3.57,3.57,0,0,1,.24-2.21.76.76,0,0,0,0-.49A3.05,3.05,0,0,1,39.38,86a.79.79,0,0,0,0-.52,3.3,3.3,0,0,1-.12-2.39c.27-.92-.09-1.81,0-2.71,0-.74-.08-1.49-.09-2.23A3.35,3.35,0,0,1,39.29,77a3.47,3.47,0,0,0,.08-2.09A7.46,7.46,0,0,1,39.44,73a5.83,5.83,0,0,0,.05-1.44,5.18,5.18,0,0,1,.2-2.62.83.83,0,0,0-.06-.43,2.85,2.85,0,0,1-.14-1.8,3.62,3.62,0,0,0,0-1.82,3.63,3.63,0,0,1,0-1.47,4.3,4.3,0,0,0-.09-2.11,1.82,1.82,0,0,1,.14-1,1.37,1.37,0,0,0,0-1.33,5.63,5.63,0,0,1,0-1.42,4,4,0,0,0-.11-2c.06-.39.12-.77.17-1.16a1,1,0,0,0,0-.52,4.5,4.5,0,0,1,0-2.57,1.05,1.05,0,0,0,0-.46,2.65,2.65,0,0,1,.19-2,1.16,1.16,0,0,0,0-.4A4,4,0,0,1,40,46.13a1.42,1.42,0,0,0-.07-.73A1.35,1.35,0,0,1,40,44.15a1.62,1.62,0,0,0,1.51.29c.62-.31,1.25-.6,1.88-.9.06.14.11.39.19.41a1,1,0,0,1,.87,1.32,2.21,2.21,0,0,0,1.16-2.55.38.38,0,0,0-.27-.17c-.29,0-.58,0-.87,0l-.6-1.2a4.7,4.7,0,0,1,.73.5c.2.19.34.41.64.17a1.54,1.54,0,0,0,.34-1.95.87.87,0,0,1-.13-.54c.16-1,.35-2.05.53-3.08,0-.12.08-.27,0-.35s-.26-.31-.38-.29c-.71.1-1.41.25-2.11.38l.6-.6,2.16-.72L48,34.06a1.81,1.81,0,0,0,1.8-1.56l.24-.48c.1-.24.21-.47.31-.71.22-.48.43-1,.65-1.45a5.92,5.92,0,0,1-2,4.21,2,2,0,0,1-1.3.61c-.35,0-.77,0-.87.61a2.34,2.34,0,0,0,.53,0,4.74,4.74,0,0,0,2.49-1.65,6.88,6.88,0,0,1,.55-.53,5.22,5.22,0,0,1-3.17,2.59c-.34.13-.87.16-1,.41a4.61,4.61,0,0,0-.34,1.59c-.08.68-.1,1.37-.13,2.06a1.35,1.35,0,0,0,0,.45,2.71,2.71,0,0,1-.09,1.86,1,1,0,0,0,0,.5c.06.42.29.89.18,1.26a9.55,9.55,0,0,0-.06,2.92c0,.78.08,1.56.09,2.33,0,.35-.09.71-.11,1.06a7.22,7.22,0,0,0,0,.8c0,.56.1,1.13.08,1.69A2.73,2.73,0,0,0,46.05,54a2.67,2.67,0,0,1,0,1.51,3.79,3.79,0,0,0,0,1.5,11.82,11.82,0,0,1,0,1.46c0,.54.07,1.08.08,1.62a3.63,3.63,0,0,1,0,1.36,3.42,3.42,0,0,0,0,2.1,2.71,2.71,0,0,1-.06.74c-.14-.57-.3-1.15-.42-1.73a1.18,1.18,0,0,1,0-.77,2.68,2.68,0,0,0,.16-2c-.07-.35-.24-.4-.56-.24-1.07.53-2.15,1-3.22,1.55-.32.15-.32.21-.07.42-.57.42-1.33.63-1.56,1.44a.73.73,0,0,0-.12,1.11c.26.4.61.23.95.06s.65-.3,1-.45h.48c-.06.23-.7.13-.35.6l-1.57,1.08c-.3,0-.68,0-.56.35s-.11.49-.18.73a1.24,1.24,0,0,0-.05.82.78.78,0,0,0,.73.18c.79-.34,1.54-.74,2.29-1.14.35-.19.57-.59,1.09-.49.12,0,.41-.32.47-.53A1.08,1.08,0,0,0,43.71,63.94Zm-2.28-3a1.71,1.71,0,0,1,.5-.19,1.63,1.63,0,0,0,1.64-1.83,5.08,5.08,0,0,0-.07-.67l-.75.17-1.56.72A1.62,1.62,0,0,0,40,60.4a1.33,1.33,0,0,0,.23.91c.06.09.47,0,.71-.09A3.74,3.74,0,0,0,41.43,60.94Zm.12-14.16a2.8,2.8,0,0,1,.6-.39c1.05-.31,1-1.22,1.23-2.24L42,44.62l-.48.24a2.9,2.9,0,0,0-.85.63,7.8,7.8,0,0,0-.57,1.36c-.14.37,0,.55.38.63a4,4,0,0,1,.68.26,9,9,0,0,0-.77.74c-.4.46,0,.83.2,1.19a.65.65,0,0,0,.61.08,18.68,18.68,0,0,0,2.2-1.52,2.3,2.3,0,0,0,.48-1.11c0-.06-.29-.23-.44-.34a2.06,2.06,0,0,1,.73-.23c.11,0,.27.33.29.52a2.12,2.12,0,0,1-1.1,1.83c-.22.11-.43.2-.64.33a3.28,3.28,0,0,0,.12.31,2.58,2.58,0,0,1-.54.29,2.84,2.84,0,0,0-2.09,1.75l.23.94,2.76-1.42,1-1.5L44,49.45l-1.17.09,1.71-.37-.15,1.93c-.9.44-1.81.87-2.7,1.34-.14.07-.2.3-.3.46a7.84,7.84,0,0,1-.61.54,2,2,0,0,0-.83,1.5c0,.17.07.47.15.48a1.24,1.24,0,0,0,.83,0c.92-.6,1.81-1.27,2.71-1.92.59-.42.63-.53.1-1-.18-.18-.52-.19-.79-.28,1.19-.69,1.44-.64,1.92.36l-.77,1.88c.07.31.28.69.18.92a1.4,1.4,0,0,0,.47,1.76l-1.38.68a3.8,3.8,0,0,0,.57.13,3.86,3.86,0,0,0,.47,0,3.38,3.38,0,0,0,.1.61c.15.38.58.55.8.35a1.88,1.88,0,0,0,.31-2.35l-.39.24-.12-.36c1-.82.46-1.9.48-2.88V52.42c.45-.64.1-1.23-.07-1.85a1.84,1.84,0,0,1,0-.74c.07-.39.41-.87.28-1.15a5.22,5.22,0,0,1-.07-2.48,1.09,1.09,0,0,0,0-.18c0-.8-.18-.89-.88-.58-.2.09-.38.21-.57.3a7.19,7.19,0,0,1-1.47.62c-.5.09-.75.28-.79.78l-.36.24ZM42,57.46c.59-.53,1.21-1,1.76-1.61.1-.1.05-.49-.06-.64a.66.66,0,0,0-.62-.16,16.06,16.06,0,0,0-2.45,1.5,2.24,2.24,0,0,0-.52,1.34c-.1.6.16.77.67.49A9.07,9.07,0,0,0,42,57.46Zm0,28.79.36-.23c.88-.07,1.19-.79,1.43-1.43.13-.34-.12-.83-.22-1.39l-1,.54-.24.11a3.87,3.87,0,0,0-2.3,1.93c-.36.62-.27,1.13.22,1.37.76.37,1.12.24,1.47-.5A4.37,4.37,0,0,1,42,86.25Zm.12-5.39a3.69,3.69,0,0,0-2.39,2.4c0,.09-.11.18-.1.27,0,.3.06.59.09.88a3.94,3.94,0,0,0,1-.15c.45-.17.85-.44,1.29-.64a4.4,4.4,0,0,0,1.84-1.55,1.49,1.49,0,0,0-.11-1.73c-.41-.43-.72,0-1.06.16A2.74,2.74,0,0,0,42.15,80.86Z" transform="translate(-22.27 -14.85)"/><path class="d" d="M37.6,35.51a4.59,4.59,0,0,1-2.05-2.15l-.81-3.06a17.37,17.37,0,0,1,1.17,2.37,6.1,6.1,0,0,0,.34.54l.39-.59c0-.34.06-.75-.1-1A3.1,3.1,0,0,1,36,29.86a3,3,0,0,0-.32-1v-.12l.12-.48A2.41,2.41,0,0,1,36,29a7.82,7.82,0,0,0,1.08,3.25c.08.16.32.23.49.34a2.06,2.06,0,0,0,0-.56,10,10,0,0,1-.43-1.23c-.24-1.5-.43-3-.65-4.49L35.7,21a2.17,2.17,0,0,1,0-.36,17.17,17.17,0,0,1,1,5.16c.12,1.34.42,2.67.5,4A6.6,6.6,0,0,0,38.61,33a1.28,1.28,0,0,0,.74.45c.69.19,1.4.34,2.11.47.39.08.65-.06.71-.53a9.17,9.17,0,0,0-.43-4.1,27.9,27.9,0,0,1-1.18-5.57A8.06,8.06,0,0,1,41,20a4.22,4.22,0,0,1,3.18-3.12,1.6,1.6,0,0,1,1.61.42L44.67,17l-.89.05v.12l.65.19-1.32.24-1,1L42,18.48l-.69,1.16.22.14c0,.49,0,1,0,1.46a.46.46,0,0,0,.29.32c.08,0,.22-.16.32-.26s.29-.37.44-.56v1.2l-.12,1.8-.2,1.18h-.24V23.72c0-.38.06-.76,0-1.13,0-.12-.16-.24-.24-.36a4.11,4.11,0,0,0-.29.3l-.17.24c-.42-.81-.09-1.61-.27-2.37a.87.87,0,0,0-.19.4,14.69,14.69,0,0,0,.46,6.75,14.71,14.71,0,0,1,1,5.08c-.19,1.58-.65,1.84-2.17,1.26a.52.52,0,0,0-.16-.06l-.74,0a4.58,4.58,0,0,0,.65.6c.13.09.35,0,.52.11s.41.17.76.33a5.81,5.81,0,0,1-.84.5c-1.41.56-2.44-.49-3.62-1l-.07.12Z" transform="translate(-22.27 -14.85)"/><path class="e" d="M43.83,41.38l.6,1.2-1.08,1c-.63.3-1.26.59-1.88.9A1.62,1.62,0,0,1,40,44.15a1.35,1.35,0,0,0-.06,1.25,1.42,1.42,0,0,1,.07.73,4,4,0,0,0-.06,2.41,1.16,1.16,0,0,1,0,.4,6.18,6.18,0,0,1-.08-2.87c.1-.89,0-1.85,0-2.8a7.92,7.92,0,0,1,0-2.43c0-.11-.08-.26-.08-.39,0-.44,0-.89,0-1.33s.07-.81.11-1.22l.39.54.88-1.12c-.76,0-1-.2-.76-.82a3.7,3.7,0,0,1,.45-.76c0,.23,0,.47,0,.83a7,7,0,0,0,1-.29c.42-.19.8-.44,1.19-.66h1l-.6.6-.58.24c.47.09.86.16,1.26.25s.41.25.32.57-.12.61-.19,1l-1.5.64a4.85,4.85,0,0,0,1.27-.09c.45-.07.62.1.44.53s-.44,1-.64,1.54A1.34,1.34,0,0,0,43.83,41.38ZM41.07,40.3a4.17,4.17,0,0,0-.67.58.56.56,0,0,0-.08.51.85.85,0,0,0,.52.25,4.76,4.76,0,0,0,.65.06c.51-.38,1-.76,1.55-1.16a1,1,0,0,0,.34-.51.68.68,0,0,0-.19-.55.88.88,0,0,0-1.16,0Zm1.56-3.48-1.44.84a12.06,12.06,0,0,0-.67,1.16.51.51,0,0,0,.15.44c.3.06.71.18.92,0a22.19,22.19,0,0,0,2.06-1.68.63.63,0,0,0,.05-.51A9.35,9.35,0,0,0,42.63,36.82Zm.4,4.92c-1,.34-1.93.62-2.22,1.71a3.2,3.2,0,0,0,0,.54c.2,0,.44.08.6,0a5.2,5.2,0,0,0,1.42-.85A2.73,2.73,0,0,0,43.29,42C43.3,41.93,43.1,41.81,43,41.74Z" transform="translate(-22.27 -14.85)"/><path class="f" d="M50.45,33.11a6.88,6.88,0,0,0-.55.53,4.74,4.74,0,0,1-2.49,1.65,2.34,2.34,0,0,1-.53,0c.1-.56.52-.6.87-.61a2,2,0,0,0,1.3-.61,5.92,5.92,0,0,0,2-4.21c.12-1.26.28-2.52.35-3.78.09-1.72.05-3.44,1.11-4.94a1.17,1.17,0,0,0,.1-.4,5.31,5.31,0,0,1,.52-.86A2.78,2.78,0,0,1,54,19a9.56,9.56,0,0,1,2-.56,5.11,5.11,0,0,1,1.16.08c.4,0,.8,0,1.21,0,.36.43.79.14,1.2.12q.74.48,1.44-.36l.39.14a3.42,3.42,0,0,1-3.59,1.11,5.38,5.38,0,0,0-3.68.33.81.81,0,0,0-.42.32,17.7,17.7,0,0,0-1.38,3.4,23.69,23.69,0,0,0-.07,3.68A10.87,10.87,0,0,1,50.45,33.11Z" transform="translate(-22.27 -14.85)"/><path class="c" d="M44.31,102.57c.06.63-.66,1.27-1.4,1.53-.47.16-.83.65-1.24,1-.19.09-.38.19-.58.27a1.57,1.57,0,0,0-1.1,1.53h0a.62.62,0,0,0-.28,1,.68.68,0,0,0,1,.09c.21-.15.44-.28.65-.43.83-.61,1.7-1.19,2.48-1.88.22-.19.22-.69.23-1,0-.07-.42-.16-.65-.24.43-.08.86-.21,1.3-.25s.41.18.22.5a3.08,3.08,0,0,0-.4.93c-.08.41-.33.56-.66.75a13.19,13.19,0,0,0-1.42,1.07l-.36.24c-.4.2-.81.37-1.2.59a5.58,5.58,0,0,0-.6.49h-.11a1.76,1.76,0,0,0-1.08,1.68l.52.36.43.36-.59.48c-.17.24-.37.32-.62.13a6.5,6.5,0,0,1-.06-1.52,4.13,4.13,0,0,0,.09-1.45,9.16,9.16,0,0,1,.07-1.8,3.38,3.38,0,0,0-.07-.63,7,7,0,0,1,.27-3.06,2.47,2.47,0,0,0-.08-1.69,5.23,5.23,0,0,1-.1-1.38h.13a4.46,4.46,0,0,0,0,.82.8.8,0,0,0,.33.55c.12.07.38-.1.56-.2s.58-.38.87-.57a1.31,1.31,0,0,0-.24.34c-.23.62-1,.91-1,1.7l.83-.08.84,0a4.53,4.53,0,0,0-.7.43c-.43.4-1,.77-.85,1.49,0,.23,0,.45,0,.67a.47.47,0,0,0,.3,0c.67-.42,1.32-.85,2-1.28l.6-.25Z" transform="translate(-22.27 -14.85)"/><path class="g" d="M35.69,20.6a2.17,2.17,0,0,0,0,.36l.78,5.3c.22,1.49.41,3,.65,4.49A10,10,0,0,0,37.56,32a2.06,2.06,0,0,1,0,.56c-.17-.11-.41-.18-.49-.34A7.82,7.82,0,0,1,36,29a2.41,2.41,0,0,0-.23-.65v-.48c0-.86-.37-1.73.09-2.57a.51.51,0,0,0-.06-.35,5.37,5.37,0,0,1-.67-2.69,3.1,3.1,0,0,0-.25-.91c-.36-1-.73-1.9-1.08-2.81l-1.74-1.11v-.12l-.37-1,.24-.19c.47.33,1,.63,1.41,1s.84.77,1.25,1.15a1.67,1.67,0,0,1,.76,1.26A6.54,6.54,0,0,0,35.69,20.6Z" transform="translate(-22.27 -14.85)"/><path class="h" d="M44.67,17l1.1.23a1.58,1.58,0,0,1,1.41.62L46.28,19l.8.08-.12.47c-.07.07-.18.14-.19.21-.07.68-.49.73-1.06.7a2.8,2.8,0,0,0-.92.29l-1,.84c-.21.37-.56.73-.59,1.12a8.64,8.64,0,0,0,0,2.54c.32,1.63.79,3.24,1.21,4.85l-.36.24A18.36,18.36,0,0,1,43,26.43c-.07-.91-.29-1.79-.45-2.69l.12-1.8,1.2-2.4,1.08-1.32.67-.13Z" transform="translate(-22.27 -14.85)"/><path class="i" d="M32.09,17.38l1.74,1.11c.35.91.72,1.85,1.08,2.81a3.1,3.1,0,0,1,.25.91,5.37,5.37,0,0,0,.67,2.69.51.51,0,0,1,.06.35c-.46.84-.08,1.71-.09,2.57a1.71,1.71,0,0,1-.23-.57c0-1.81-.75-3.51-.68-5.33,0-.08-.08-.17-.14-.26a11.66,11.66,0,0,1-1.38-2.92c0-.12-.18-.21-.27-.32l-.18.08a6.59,6.59,0,0,0,.2.88c.13.35.15.65-.2.88a5.64,5.64,0,0,0-3-.54c-.83,0-1.65-.1-2.48-.16,1.58.25,3.18-.58,4.78.13,0-.22-.06-.42-.16-.46-.6-.25-1-1.21-1.88-.6-.08.06-.23,0-.35,0-.66.06-1.33.15-2,.19-.11,0-.23-.16-.35-.25.44.24.56-.1.77-.41-.64-.1-1.3,0-1.63-.61.55-.19,1.06-.39,1.59-.54a.5.5,0,0,1,.4.15.64.64,0,0,0,.91.09c.1.09.23.28.29.26.62-.2.68.19.68.63.52-.13,1-.25,1.48-.4C32.07,17.73,32.06,17.51,32.09,17.38Z" transform="translate(-22.27 -14.85)"/><path class="j" d="M27.53,18.58c.12.09.24.26.35.25.67,0,1.34-.13,2-.19.12,0,.27.05.35,0,.89-.61,1.28.35,1.88.6.1,0,.14.24.16.46-1.6-.71-3.2.12-4.78-.13l-1.4-.12c-.05-.08-.16-.16-.15-.24.06-.57,0-.65-.55-.48a3,3,0,0,1-.4.11l-.35-.19c-.18-.94-1.07-1.17-1.7-1.64-.37-.28-.52-.51-.32-.93l.36-.23.24.46-.13.08s0,0,.05,0c.45.17,1.09,0,1.2.51a2.87,2.87,0,0,1,.89.17C26,17.56,26.77,18.08,27.53,18.58Z" transform="translate(-22.27 -14.85)"/><path class="k" d="M52.58,20.74a1.17,1.17,0,0,1-.1.4c-1.06,1.5-1,3.22-1.11,4.94-.07,1.26-.23,2.52-.35,3.78-.22.48-.43,1-.65,1.45-.1.24-.21.47-.31.71l-.2-.63a8,8,0,0,0-.72.35,1.1,1.1,0,0,0-.32.42c-.67,1.38-1.83,1.6-3.18,1.36l1.06-.46a7.29,7.29,0,0,0,2.39-2.36,5.35,5.35,0,0,0,.46-1,14.69,14.69,0,0,0,.51-4.43c0-.16,0-.32,0-.48s0-.27,0-.4h.22c0,1.14,0,2.28,0,3.43a10.55,10.55,0,0,0,.27,1.45h.22l.2-.84c.09-1.36.14-2.73.27-4.09.09-.92.29-1.83.45-2.75l.84-1.08Z" transform="translate(-22.27 -14.85)"/><path class="l" d="M44.91,114.21l.12,1c.18.43-.17.57-.41.49-.55-.2-.89.17-1.32.34s-.88.34-1.32.51l-.9-.26v-.12a5.68,5.68,0,0,1,.41-.77c.24-.35.52-.69.78-1,.19-.54.08-1.22.72-1.56l.24-.24h0l1.2.59Z" transform="translate(-22.27 -14.85)"/><path class="m" d="M27.53,18.58c-.76-.5-1.51-1-2.3-1.49a2.87,2.87,0,0,0-.89-.17c-.11-.55-.75-.34-1.2-.51,0,0,0,0-.05,0l.13-.08c.5-.09,1-.17,1.49-.28a2.28,2.28,0,0,1,2,.16h1.66l.08-.14-.9-.58a6.06,6.06,0,0,0-2.84.1,7.75,7.75,0,0,1-1.36.14,6.38,6.38,0,0,1,3.23-.46c.08,0,.17,0,.23,0,1.18-.6,2.29.21,3.45.17a4.42,4.42,0,0,1,1.28.37l-3.69-.61,1.25,1.11a1.43,1.43,0,0,0,.07.48,3.07,3.07,0,0,0,.41.48h0a.64.64,0,0,1-.91-.09.5.5,0,0,0-.4-.15c-.53.15-1,.35-1.59.54.33.63,1,.51,1.63.61C28.09,18.48,28,18.82,27.53,18.58Z" transform="translate(-22.27 -14.85)"/><path class="e" d="M43,112.77c-.64.34-.53,1-.72,1.56-.09-.35-.32-.37-.6-.24l-1.82,1c-.24.13-.48.3-.72.45-.11-.21-.32-.42-.31-.63,0-.94.1-1.88.15-2.82a2.66,2.66,0,0,0-.07-.39c.25.19.45.11.62-.13l-.08,1.19a18,18,0,0,0,1.83-.85c.68-.43,1.31-.94,2-1.42a1.86,1.86,0,0,0,1.07-1.25l-.71-.07c.43-.13.91-.5,1.27.08s-.11.85-.54,1.09l-1.24.7a1,1,0,0,0-.41.35l.44.06-1,.36c-.71.46-1.44.88-2.12,1.38a.56.56,0,0,0,0,.92Z" transform="translate(-22.27 -14.85)"/><path class="m" d="M52.58,20.5l-.84,1.08-.1-.79c-.46.37-.87.67-.67,1.3.06.22,0,.66-.1.71-.66.3-.39.77-.3,1.22a3.32,3.32,0,0,1,.19.8c0,1.07-.11,2.14-.18,3.2,0,.33.06.53.44.4l-.2.84H50.6a10.55,10.55,0,0,1-.27-1.45c0-1.15,0-2.29,0-3.43H50.1c0,.13,0,.27,0,.4s0,.32,0,.48a14.69,14.69,0,0,1-.51,4.43,5.35,5.35,0,0,1-.46,1A21.39,21.39,0,0,0,50,24.49a29.82,29.82,0,0,1,.66-4l.2.38a10.07,10.07,0,0,1,.64-1.16c.21-.29.6-.79.75-.74.65.23.71-.28,1-.59l.48.24Z" transform="translate(-22.27 -14.85)"/><path class="n" d="M32.92,20.26c.35-.23.33-.53.2-.88a6.59,6.59,0,0,1-.2-.88l.18-.08c.09.11.23.2.27.32a11.66,11.66,0,0,0,1.38,2.92c.06.09.14.18.14.26-.07,1.82.69,3.52.68,5.33a1.71,1.71,0,0,0,.23.57v.48l-.12.48a7.45,7.45,0,0,1-.22-1.22,1.7,1.7,0,0,0-.74-1.25,6.16,6.16,0,0,0,.11,2.87l-.2,0-.27-.42a25.5,25.5,0,0,1,0-3.15,7.48,7.48,0,0,0-.9-4.71A5.21,5.21,0,0,0,32.92,20.26Z" transform="translate(-22.27 -14.85)"/><path class="f" d="M40.84,35.74a3.7,3.7,0,0,0-.45.76c-.22.62,0,.86.76.82l-.88,1.12-.39-.54-.07-1.43-2.21-1-.87-1,.07-.12c1.18.47,2.21,1.52,3.62,1a5.81,5.81,0,0,0,.84-.5c-.35-.16-.55-.26-.76-.33s-.39,0-.52-.11a4.58,4.58,0,0,1-.65-.6l.74,0a.52.52,0,0,1,.16.06c1.52.58,2,.32,2.17-1.26,0,.35.07.71.11,1.07v.71Z" transform="translate(-22.27 -14.85)"/><path class="o" d="M34.36,28.78l.27.42.2,0a6.16,6.16,0,0,1-.11-2.87,1.7,1.7,0,0,1,.74,1.25,7.45,7.45,0,0,0,.22,1.22v.12c.1.73.16,1.47.33,2.18a10.17,10.17,0,0,0,.63,1.54l-.39.59a6.1,6.1,0,0,1-.34-.54,17.37,17.37,0,0,0-1.17-2.37l.81,3.06a8.47,8.47,0,0,1-.66-1.48C34.65,30.86,34.53,29.81,34.36,28.78Z" transform="translate(-22.27 -14.85)"/><path class="p" d="M42,116.51c.44-.17.89-.32,1.32-.51s.77-.54,1.32-.34c.24.08.59-.06.41-.49a1,1,0,0,1,.41-.81,6.15,6.15,0,0,0,.86-1.58,4.29,4.29,0,0,0,.19-.5,5.7,5.7,0,0,0,.26,2,1.44,1.44,0,0,1-.38,1.27A4.9,4.9,0,0,1,42,116.51Z" transform="translate(-22.27 -14.85)"/><path class="m" d="M46.7,33.06l-1.06.46c1.35.24,2.51,0,3.18-1.36a1.1,1.1,0,0,1,.32-.42,8,8,0,0,1,.72-.35l.2.63-.24.48c-.12.09-.26.26-.37.25-1-.14-1.23.75-2.05,1.12l.62.19-1.79.84v-.24l.19-.52a2.05,2.05,0,0,0-.54-.1c-.88,0-1.77.09-2.65.14l1.2-.48c.45-.14.33-.52.36-.84h.11l.07.49Z" transform="translate(-22.27 -14.85)"/><path class="j" d="M63,16.58l-.75.8a3.26,3.26,0,0,0-.8.37,3.65,3.65,0,0,1-2.17.68c-.23,0-.48-.21-.73-.33l1.56-.84,1.72-.85C62.35,16.17,62.84,16.23,63,16.58Z" transform="translate(-22.27 -14.85)"/><path class="k" d="M53.18,18.34c-.24.31-.3.82-1,.59-.15-.05-.54.45-.75.74a10.07,10.07,0,0,0-.64,1.16l-.2-.38.35-.92a.8.8,0,0,0,.21-.2,5.6,5.6,0,0,1,2-2.34l1.2-.44v.23Z" transform="translate(-22.27 -14.85)"/><path class="q" d="M63,16.58c-.18-.35-.67-.41-1.17-.17l-1.72.85c.61-.77.61-.77.55-1.12l-.91.67v-.87l.41-.36a2.82,2.82,0,0,0,.86.31,16.41,16.41,0,0,0,1.72-.16s-.09-.1-.15-.11L59.9,15.3c-.22,0-.43-.06-.65-.06-.38,0-.77,0-1.16,0l-.4.1a1.27,1.27,0,0,1,1.65-.26.56.56,0,0,0,.23,0c.9.08,1.79.16,2.69.22S63.42,15.75,63,16.58Z" transform="translate(-22.27 -14.85)"/><path class="i" d="M29.09,16.3l-1.25-1.11,3.69.61a5.47,5.47,0,0,1,3.09,2.41c-.41-.38-.81-.8-1.25-1.15s-.94-.67-1.41-1l-.24.19.37,1-.36-.12a9.62,9.62,0,0,0-.68-.74,1,1,0,0,0-1.23-.28A2.89,2.89,0,0,1,29.09,16.3Z" transform="translate(-22.27 -14.85)"/><path class="c" d="M44.9,32.86h-.11l-.36-2.76c-.42-1.61-.89-3.22-1.21-4.85a8.64,8.64,0,0,1,0-2.54c0-.39.38-.75.59-1.12-.87,1.35-.47,2.78-.23,4.17.19,1.07.55,2.1.8,3.16s.47,2.2.67,3.3A1.82,1.82,0,0,1,44.9,32.86Z" transform="translate(-22.27 -14.85)"/><path class="m" d="M26.7,16.18a2.28,2.28,0,0,0-2-.16c-.49.11-1,.19-1.49.28L23,15.84l.36-.14a7.75,7.75,0,0,0,1.36-.14,6.06,6.06,0,0,1,2.84-.1Z" transform="translate(-22.27 -14.85)"/><path class="r" d="M39.13,115.54c.24-.15.48-.32.72-.45l1.82-1c.08,1-.88,1.16-1.41,1.82l.82.22v.12Z" transform="translate(-22.27 -14.85)"/><path class="q" d="M57.69,15.32l.4-.1.24.12a4.62,4.62,0,0,0-.62.54,1.07,1.07,0,0,1-1.25.42,1.57,1.57,0,0,0-.8.05c-.43.12-.86.29-1.29.43v-.23Z" transform="translate(-22.27 -14.85)"/><path class="s" d="M58.57,18.1c.25.12.5.35.73.33a3.65,3.65,0,0,0,2.17-.68,3.26,3.26,0,0,1,.8-.37l-.79,1.1-.39-.14-1.44.36c-.41,0-.84.31-1.2-.12l-.12-.48Z" transform="translate(-22.27 -14.85)"/><path class="n" d="M22.62,16.07c-.2.42-.05.65.32.93.63.47,1.52.7,1.7,1.64-.7-.53-1.41-1-2.1-1.59C22.15,16.75,22.2,16.39,22.62,16.07Z" transform="translate(-22.27 -14.85)"/><path class="t" d="M47.08,19.08l-.8-.08.9-1.13C47.69,18.32,47.23,18.69,47.08,19.08Z" transform="translate(-22.27 -14.85)"/><path class="m" d="M53.17,17a5.6,5.6,0,0,0-2,2.34.8.8,0,0,1-.21.2A3.75,3.75,0,0,1,53.17,17Z" transform="translate(-22.27 -14.85)"/><path class="n" d="M39.51,55.64a4,4,0,0,1,.11,2,5.63,5.63,0,0,0,0,1.42c0-.57-.08-1.14-.11-1.71s0-.95-.05-1.42A.84.84,0,0,1,39.51,55.64Z" transform="translate(-22.27 -14.85)"/><path class="n" d="M25,18.83a3,3,0,0,0,.4-.11c.53-.17.61-.09.55.48,0,.08.1.16.15.24Z" transform="translate(-22.27 -14.85)"/><path class="u" d="M44.79,20.75a2.8,2.8,0,0,1,.92-.29c.57,0,1,0,1.06-.7,0-.07.12-.14.19-.21a1,1,0,0,1,0,.17c-.25,1-.25,1-1.27.92A4.32,4.32,0,0,0,44.79,20.75Z" transform="translate(-22.27 -14.85)"/><path class="v" d="M39.15,100.17H39c0-.67-.09-1.33-.11-2A4,4,0,0,1,39,97.5c.08.65.17,1.3.26,2C39.24,99.69,39.2,99.93,39.15,100.17Z" transform="translate(-22.27 -14.85)"/><path class="w" d="M42.39,76.42l-.24.12-1.07.59c-.24.12-.49.22-.74.33-.08-.31-.18-.62-.25-.93a1,1,0,0,1,0-.35l1.68-1.56.24-.13,1,.05a4.54,4.54,0,0,1,.17.9.75.75,0,0,1-.26.44C42.8,76.07,42.59,76.24,42.39,76.42Z" transform="translate(-22.27 -14.85)"/><path class="x" d="M43,104.61h.12a5.67,5.67,0,0,1,.72.09.6.6,0,0,1,0,.42c-.56.74-1.07,1.55-2.1,1.72-.42.07-.85.11-1.09.58-.06.13-.33.15-.59.26l0-.79h0a3.94,3.94,0,0,1,2.09-1.74A5.59,5.59,0,0,0,43,104.61Z" transform="translate(-22.27 -14.85)"/><path class="y" d="M40.83,65.38,42.4,64.3l.47-.12c.7.12.83.37.47.93a5.7,5.7,0,0,1-.49.75,2.6,2.6,0,0,1-2,1.07c-.4,0-.6-.19-.43-.62Z" transform="translate(-22.27 -14.85)"/><path class="z" d="M40.47,98.73l1.2-1.08,1.08-.48,1.06-.25c-.41,1.4-1.55,1.87-2.5,2.54l-1.15.24Z" transform="translate(-22.27 -14.85)"/><path class="k" d="M40.83,65.38l-.37.93c-.17.43,0,.61.43.62a2.6,2.6,0,0,0,2-1.07,5.7,5.7,0,0,0,.49-.75c.36-.56.23-.81-.47-.93l.84-.24a1.08,1.08,0,0,1,.91,1.36c-.06.21-.35.55-.47.53-.52-.1-.74.3-1.09.49-.75.4-1.5.8-2.29,1.14a.78.78,0,0,1-.73-.18,1.24,1.24,0,0,1,.05-.82c.07-.24.3-.37.18-.73S40.53,65.33,40.83,65.38Z" transform="translate(-22.27 -14.85)"/><path class="aa" d="M41,93l1.19-.72,1-.37h.12a1,1,0,0,1-.37,1.26A16,16,0,0,1,41,94.37a1.83,1.83,0,0,1-.67.15,2.18,2.18,0,0,1,.06-.77A3.53,3.53,0,0,1,41,93Z" transform="translate(-22.27 -14.85)"/><path class="ab" d="M39.76,102.81c-.09-.79.72-1.08,1-1.7a1.31,1.31,0,0,1,.24-.34l1.08-.48,1.23.14c-.15.47-.14.5-1,1S40.59,102.36,39.76,102.81Z" transform="translate(-22.27 -14.85)"/><path class="c" d="M41.31,99.46c.95-.67,2.09-1.14,2.5-2.54l-1.06.25a15.45,15.45,0,0,1,1.53-.75c.13-.06.43.15.56.32a.51.51,0,0,1,0,.52,5.49,5.49,0,0,1-1.08,1.17c-.91.67-1.88,1.25-2.83,1.86Z" transform="translate(-22.27 -14.85)"/><path class="m" d="M42.39,71l.12-.12,1.2-.36c.32.21.48.45.23.83a.38.38,0,0,0,0,.33c.23.43,0,.73-.27,1-.53.49-1.08,1-1.62,1.45l-.48.24c-.21,0-.45-.13-.63-.06a1.17,1.17,0,0,1-1.16-.18c0-.5-.08-1,.48-1.32a6,6,0,0,0,.09.94c0,.13.24.36.31.34a6.22,6.22,0,0,0,1.47-.5,6.51,6.51,0,0,0,1-.9.69.69,0,0,0,.34-1c-.11-.2-.43-.27-.66-.4Z" transform="translate(-22.27 -14.85)"/><path class="c" d="M42.51,100.05c.82-.33,1.62-.72,2.46-1,.18,0,.5.38.76.59a4.78,4.78,0,0,1-3,2.06,4.59,4.59,0,0,0,1.43-2.15Z" transform="translate(-22.27 -14.85)"/><path class="ac" d="M40.47,63c.23-.81,1-1,1.56-1.44l.48-.12c.14.06.39.16.39.17-.19.48-.27,1.14-.63,1.4a7,7,0,0,1-1.93.63Z" transform="translate(-22.27 -14.85)"/><path class="o" d="M40.47,63l-.13.64A7,7,0,0,0,42.27,63c.36-.26.44-.92.63-1.4,0,0-.25-.11-.39-.17l.24-.12c.86,0,.92,0,1,1-.57-.21-.67.28-.72.59a1,1,0,0,1-.71.78c-.32.15-.65.29-1,.45s-.69.34-.95-.06A.73.73,0,0,1,40.47,63Z" transform="translate(-22.27 -14.85)"/><path class="ad" d="M44,76.78c.42.23.42.52.13.87-.08.1-.18.24-.16.35.11,1-.64,1.38-1.37,1.75-.3.15-.59.34-.88.51v-.12c.47-.59,1-1.16,1.38-1.77s.19-.79-.36-.94a2.38,2.38,0,0,0-.53-.05v-.12l1.07-.3Z" transform="translate(-22.27 -14.85)"/><path class="ad" d="M40,106.89l0,.79c.26-.11.53-.13.59-.26.24-.47.67-.51,1.09-.58,1-.17,1.54-1,2.1-1.72a.6.6,0,0,0,0-.42,5.67,5.67,0,0,0-.72-.09l.36-.24c.23.08.65.17.65.24,0,.36,0,.86-.23,1-.78.69-1.65,1.27-2.48,1.88-.21.15-.44.28-.65.43a.68.68,0,0,1-1-.09A.62.62,0,0,1,40,106.89Z" transform="translate(-22.27 -14.85)"/><path class="e" d="M42.51,100.05l1.67-.47a4.59,4.59,0,0,1-1.43,2.15c-.12.2-.59.19-.36.6h0l-1,.35-.84,0-.83.08c.83-.45,1.68-.89,2.5-1.37s.85-.54,1-1L42,100.29Z" transform="translate(-22.27 -14.85)"/><path class="q" d="M42.39,76.42c.2-.18.41-.35.59-.54a.75.75,0,0,0,.26-.44,4.54,4.54,0,0,0-.17-.9l-1-.05a3.15,3.15,0,0,1,2-.62,4.64,4.64,0,0,1-.09.77c-.11.37-.15.68.24.93.07,0,0,.38,0,.44a4.22,4.22,0,0,1-.79.41Z" transform="translate(-22.27 -14.85)"/><path class="e" d="M42.27,63.7a1,1,0,0,0,.71-.78c.05-.31.15-.8.72-.59,0-1-.09-1.06-1-1a7.71,7.71,0,0,1,1.11-.39.6.6,0,0,1,.75.75c-.23.6-.33,1.33-1.1,1.58a3.5,3.5,0,0,0-.76.46Z" transform="translate(-22.27 -14.85)"/><path class="ad" d="M42.87,94.41l.53.42a2.14,2.14,0,0,1-1.58,1.89c-.44.16-.77.62-1.2.85a2.25,2.25,0,0,1-.87.05,3.49,3.49,0,0,1,.13-1c.1-.26.39-.44.59-.66,0,.08-.07.17,0,.23a1.86,1.86,0,0,0,.31.73c.07.07.42-.07.61-.17a7.5,7.5,0,0,0,1.36-1.21c.61-.57.19-.7-.08-1v-.12Z" transform="translate(-22.27 -14.85)"/><path class="q" d="M40.23,69.1a1.65,1.65,0,0,1,1-1.14c.19-.11.39-.2.58-.3l1.92-.48c.34.43.72.92.34,1.46a15.79,15.79,0,0,1-1.42,1.54h0c.16-.31.31-.62.48-.92a8.53,8.53,0,0,0,.53-.85.49.49,0,0,0-.52-.7,3.28,3.28,0,0,0-2.41.91l-.24.36-.23.12Z" transform="translate(-22.27 -14.85)"/><path class="c" d="M42.63,70.18a15.79,15.79,0,0,0,1.42-1.54c.38-.54,0-1-.34-1.46l.52-.13c.31-.09.51.07.47.34a17.42,17.42,0,0,1-.39,1.77c-.24.93-1.1,1.12-1.8,1.5Z" transform="translate(-22.27 -14.85)"/><path class="e" d="M44.31,102.57l-1.56,1.2a2.8,2.8,0,0,0,.12-.63c0-.35.14-.81-.48-.8h0l1-.47C44,101.61,44.35,101.88,44.31,102.57Z" transform="translate(-22.27 -14.85)"/><path class="ae" d="M39.16,110.37a1.76,1.76,0,0,1,1.08-1.68,7.49,7.49,0,0,0-.44.84.43.43,0,0,0,.09.37c0,.06.22,0,.32,0,.37-.15.73-.33,1.1-.5s.54-.22.79-.36.68-.4,1-.6l-.24.6-.48.24a12.54,12.54,0,0,0-1.34.62A2,2,0,0,1,39.16,110.37Z" transform="translate(-22.27 -14.85)"/><path class="af" d="M42,74.14c.54-.48,1.09-1,1.62-1.45.28-.26.5-.56.27-1a.38.38,0,0,1,0-.33c.25-.38.09-.62-.23-.83l.53-.28c.29.41.47.76.14,1.24-.14.21,0,.6-.09.84a2.54,2.54,0,0,1-1.48,1.51C42.54,73.93,42.29,74,42,74.14Z" transform="translate(-22.27 -14.85)"/><path class="q" d="M42.63,70.18l-.12.48h-.24a11,11,0,0,1-1.46.62.86.86,0,0,1-.71-.3,1.6,1.6,0,0,1,.13-1.88h0a5.43,5.43,0,0,0-.06,1.06c0,.19.28.52.39.5.69-.12,1.37-.31,2.06-.48Z" transform="translate(-22.27 -14.85)"/><path class="af" d="M42.87,109.05l.24-.6.76-.84H42.15l.36-.24,1.71-.42.36.7C43.82,107.89,43.76,108.94,42.87,109.05Z" transform="translate(-22.27 -14.85)"/><path class="af" d="M39.76,74.14a1.17,1.17,0,0,0,1.16.18c.18-.07.42,0,.63.06l.24.24-1.68,1.56H40c.13-.58.42-1.17-.2-1.67C39.72,74.46,39.76,74.27,39.76,74.14Z" transform="translate(-22.27 -14.85)"/><path class="af" d="M39.16,110.37a2,2,0,0,0,1.89-.46,12.54,12.54,0,0,1,1.34-.62l.48.12h0l-2.29,1.44-.48.24-.43-.36Z" transform="translate(-22.27 -14.85)"/><path class="u" d="M42.15,111.81l1-.36,1.63-.38c-.46.71-.53,1.56-1.51,1.47h0l.31-.51a4.17,4.17,0,0,0-.57-.18A7.49,7.49,0,0,0,42.15,111.81Z" transform="translate(-22.27 -14.85)"/><path class="p" d="M44.91,114.21l-.48-1.08c.36-.42.8-.55,1-.26s.14.69-.19,1C45.14,114,45,114.09,44.91,114.21Z" transform="translate(-22.27 -14.85)"/><path class="q" d="M43,89.25c.88.78.76,1.24,0,1.82a7.14,7.14,0,0,1-.81.47v-.13l.29-.2c.39-.25.72-.52.66-1s-.54-.38-.83-.54l.48-.25Z" transform="translate(-22.27 -14.85)"/><path class="q" d="M41.31,99.46l-.36.83-.12.12c-.47-.15-.94-.26-.94-.93,0-.45.18-.67.58-.75l-.31,1Z" transform="translate(-22.27 -14.85)"/><path class="ag" d="M43.59,109.17l.71.07a1.86,1.86,0,0,1-1.07,1.25h0c0-.4.35-.91-.35-1.08h0Z" transform="translate(-22.27 -14.85)"/><path class="ad" d="M43,104.61a5.59,5.59,0,0,1-.91.54A3.94,3.94,0,0,0,40,106.89a1.57,1.57,0,0,1,1.1-1.53c.2-.08.39-.18.58-.27Z" transform="translate(-22.27 -14.85)"/><path class="f" d="M42,47.14c0-.5.29-.69.79-.78a7.19,7.19,0,0,0,1.47-.62c.19-.09.37-.21.57-.3.7-.31.84-.22.88.58a1.09,1.09,0,0,1,0,.18,5.22,5.22,0,0,0,.07,2.48c.13.28-.21.76-.28,1.15a1.84,1.84,0,0,0,0,.74c.17.62.52,1.21.07,1.85,0-.33-.07-.67-.11-1s-.09-.48-.14-.71l-.75.26a.86.86,0,0,0-.2.13l.15-1.93-1.71.37h0a3.28,3.28,0,0,1-.12-.31c.21-.13.42-.22.64-.33a2.12,2.12,0,0,0,1.1-1.83c0-.19-.18-.51-.29-.52a2.06,2.06,0,0,0-.73.23Z" transform="translate(-22.27 -14.85)"/><path class="f" d="M43.83,41.38a1.34,1.34,0,0,1,0-.45c.2-.52.43-1,.64-1.54s0-.6-.44-.53a4.85,4.85,0,0,1-1.27.09l1.5-.64c.07-.42.11-.73.19-1s0-.51-.32-.57-.79-.16-1.26-.25l.58-.24c.7-.13,1.4-.28,2.11-.38.12,0,.29.16.38.29s0,.23,0,.35c-.18,1-.37,2.05-.53,3.08a.87.87,0,0,0,.13.54,1.54,1.54,0,0,1-.34,1.95c-.3.24-.44,0-.64-.17A4.7,4.7,0,0,0,43.83,41.38Z" transform="translate(-22.27 -14.85)"/><path class="ag" d="M42,47.14l1.44-.36c.15.11.46.28.44.34a2.3,2.3,0,0,1-.48,1.11,18.68,18.68,0,0,1-2.2,1.52.65.65,0,0,1-.61-.08c-.19-.36-.6-.73-.2-1.19a9,9,0,0,1,.77-.74l.48-.36Z" transform="translate(-22.27 -14.85)"/><path class="ac" d="M39.76,83.26a3.69,3.69,0,0,1,2.39-2.4l1.07-.34c.28,1.11-.52,1.61-1.07,2.16a4.27,4.27,0,0,1-2.32,1.21Z" transform="translate(-22.27 -14.85)"/><path class="ah" d="M42.16,77.38a2.38,2.38,0,0,1,.53.05c.55.15.7.46.36.94s-.91,1.18-1.38,1.77a7.92,7.92,0,0,1-1.05.32c-.11,0-.38-.29-.35-.39.15-.58.37-1.16.56-1.73Z" transform="translate(-22.27 -14.85)"/><path class="u" d="M39.76,83.26l.07.63a4.27,4.27,0,0,0,2.32-1.21c.55-.55,1.35-1.05,1.07-2.16l-1.07.34a2.74,2.74,0,0,1,.55-.36c.34-.11.65-.59,1.06-.16a1.49,1.49,0,0,1,.11,1.73A4.4,4.4,0,0,1,42,83.62c-.44.2-.84.47-1.29.64a3.94,3.94,0,0,1-1,.15c0-.29-.08-.58-.09-.88C39.65,83.44,39.72,83.35,39.76,83.26Z" transform="translate(-22.27 -14.85)"/><path class="ac" d="M43.11,72.7a6.51,6.51,0,0,1-1,.9,6.22,6.22,0,0,1-1.47.5c-.07,0-.28-.21-.31-.34a6,6,0,0,1-.09-.94V72.7l.48-.31c.36-.26.71-.55,1.09-.79a.44.44,0,0,1,.43,0C42.55,72,42.82,72.33,43.11,72.7Z" transform="translate(-22.27 -14.85)"/><path class="r" d="M42.39,86l-.36.23a7.19,7.19,0,0,1-.76.32.55.55,0,0,1-.42,0,.88.88,0,0,1-.08-1.25c.53-.5,1.08-1,1.62-1.46l.24-.11c.65,0,.85.28.62.71Z" transform="translate(-22.27 -14.85)"/><path class="ai" d="M43.23,51.1l-2.76,1.42-.23-.94c.37-.35.74-.72,1.13-1.06C42.22,49.8,43,50,43.23,51.1Z" transform="translate(-22.27 -14.85)"/><path class="u" d="M42,57.46a9.07,9.07,0,0,1-1.22.92c-.51.28-.77.11-.67-.49a2.24,2.24,0,0,1,.52-1.34,16.06,16.06,0,0,1,2.45-1.5.66.66,0,0,1,.62.16c.11.15.16.54.06.64-.55.57-1.17,1.08-1.76,1.61.3-.64.61-1.28,1-2a3.76,3.76,0,0,0-2.27,1.4,1.13,1.13,0,0,0-.09.63c.07.45.31.52.7.28A3.6,3.6,0,0,1,42,57.46Z" transform="translate(-22.27 -14.85)"/><path class="aj" d="M41.19,59.14l1.56-.72c.56.09.6.22.29.65-.18.25-.3.54-.47.8a2.67,2.67,0,0,1-.46.59,3.66,3.66,0,0,1-.68.36c-.93-.18-1.07-.54-.51-1.29C41,59.4,41.1,59.27,41.19,59.14Z" transform="translate(-22.27 -14.85)"/><path class="f" d="M43.35,43.54l1.08-1c.29,0,.58,0,.87,0a.38.38,0,0,1,.27.17,2.21,2.21,0,0,1-1.16,2.55A1,1,0,0,0,43.54,44C43.46,43.93,43.41,43.68,43.35,43.54Z" transform="translate(-22.27 -14.85)"/><path class="aa" d="M42.63,94.53c.27.32.69.45.08,1a7.5,7.5,0,0,1-1.36,1.21c-.19.1-.54.24-.61.17a1.86,1.86,0,0,1-.31-.73c0-.06,0-.15,0-.23C40.94,95.11,41.85,94.93,42.63,94.53Z" transform="translate(-22.27 -14.85)"/><path class="x" d="M42.27,89.62c.29.16.77,0,.83.54s-.27.8-.66,1l-.29.2-.11,0c-1.33.57-1.35.56-1.21-.89Z" transform="translate(-22.27 -14.85)"/><path class="h" d="M45.27,56.74l.39-.24a1.88,1.88,0,0,1-.31,2.35c-.22.2-.65,0-.8-.35a3.38,3.38,0,0,1-.1-.61,3.86,3.86,0,0,1-.47,0,3.8,3.8,0,0,1-.57-.13l1.38-.68Z" transform="translate(-22.27 -14.85)"/><path class="h" d="M44.43,51.1a.86.86,0,0,1,.2-.13l.75-.26c0,.23.1.47.14.71s.07.67.11,1l-.72.12c-.48-1-.73-1-1.92-.36l-.12.12-1.19.48-.25.12c.1-.16.16-.39.3-.46C42.62,52,43.53,51.54,44.43,51.1Z" transform="translate(-22.27 -14.85)"/><path class="f" d="M44.91,52.54l.72-.12V53.5c-.56-.15-.73.27-.8.65a7.13,7.13,0,0,0-.08,1.6c0,.21.26.42.4.63l.12.36-.48.36a1.4,1.4,0,0,1-.47-1.76c.1-.23-.11-.61-.18-.92Z" transform="translate(-22.27 -14.85)"/><path class="x" d="M41.55,44.86l.48-.24.58.13a2.17,2.17,0,0,1-.17.58c-.32.5-.67,1-1,1.45-.17.06-.45.23-.5.18a.81.81,0,0,1-.19-1.07C41,45.53,41.28,45.2,41.55,44.86Z" transform="translate(-22.27 -14.85)"/><path class="h" d="M45.15,56.38c-.14-.21-.39-.42-.4-.63a7.13,7.13,0,0,1,.08-1.6c.07-.38.24-.8.8-.65C45.61,54.48,46.17,55.56,45.15,56.38Z" transform="translate(-22.27 -14.85)"/><path class="m" d="M42.39,83.85c-.54.49-1.09,1-1.62,1.46a.88.88,0,0,0,.08,1.25.55.55,0,0,0,.42,0,7.19,7.19,0,0,0,.76-.32,4.37,4.37,0,0,0-.25.4c-.35.74-.71.87-1.47.5-.49-.24-.58-.75-.22-1.37A3.87,3.87,0,0,1,42.39,83.85Z" transform="translate(-22.27 -14.85)"/><path class="m" d="M42.87,52.3l.12-.12c.27.09.61.1.79.28.53.5.49.61-.1,1-.9.65-1.79,1.32-2.71,1.92a1.24,1.24,0,0,1-.83,0c-.08,0-.1-.31-.15-.48l.72-.84,0,1.08.91-.35.11,0a17,17,0,0,0,1.48-1.18A.93.93,0,0,0,42.87,52.3Z" transform="translate(-22.27 -14.85)"/><path class="m" d="M43.23,51.1c-.27-1.06-1-1.3-1.86-.58-.39.34-.76.71-1.13,1.06a2.84,2.84,0,0,1,2.09-1.75,2.58,2.58,0,0,0,.54-.29h0L44,49.45l.15.15Z" transform="translate(-22.27 -14.85)"/><path class="k" d="M41,93a3.53,3.53,0,0,0-.53.77,2.18,2.18,0,0,0-.06.77,1.83,1.83,0,0,0,.67-.15,16,16,0,0,0,1.82-1.21,1,1,0,0,0,.37-1.26c.13.12.4.26.38.35a1.78,1.78,0,0,1-.76,1.4c-.73.43-1.43.9-2.13,1.36a.55.55,0,0,1-.78-.29A1.57,1.57,0,0,1,41,93Z" transform="translate(-22.27 -14.85)"/><path class="ai" d="M43.11,72.7c-.29-.37-.56-.74-.87-1.08a.44.44,0,0,0-.43,0c-.38.24-.73.53-1.09.79l-.48.31c.13-.21.22-.49.4-.62.56-.38,1.17-.71,1.75-1.06l.4.23c.23.13.55.2.66.4A.69.69,0,0,1,43.11,72.7Z" transform="translate(-22.27 -14.85)"/><path class="ac" d="M41,87.93l.36-.23.62,0a2.42,2.42,0,0,1-.13.72,7.61,7.61,0,0,1-.61.91l-.39-.06-.47-.07a2.24,2.24,0,0,1,.14-.58A8.33,8.33,0,0,1,41,87.93Z" transform="translate(-22.27 -14.85)"/><path class="m" d="M41.43,46.78c.34-.48.69-1,1-1.45a2.17,2.17,0,0,0,.17-.58L42,44.62l1.35-.47c-.24,1-.18,1.93-1.23,2.24a2.8,2.8,0,0,0-.6.39Z" transform="translate(-22.27 -14.85)"/><path class="ak" d="M42.39,86l.86-1.57c.23-.43,0-.67-.62-.71l1-.54c.1.56.35,1,.22,1.39C43.58,85.23,43.27,86,42.39,86Z" transform="translate(-22.27 -14.85)"/><path class="s" d="M41,87.93a8.33,8.33,0,0,0-.48.73,2.24,2.24,0,0,0-.14.58l.47.07.39.06,1.08-.6c-.75.5-1.49,1-2.26,1.47,0,0-.32-.23-.3-.33A2.33,2.33,0,0,1,41,87.93Z" transform="translate(-22.27 -14.85)"/><path class="u" d="M41.43,60.82a3.66,3.66,0,0,0,.68-.36,2.67,2.67,0,0,0,.46-.59c.17-.26.29-.55.47-.8.31-.43.27-.56-.29-.65l.75-.17a5.08,5.08,0,0,1,.07.67,1.63,1.63,0,0,1-1.64,1.83,1.71,1.71,0,0,0-.5.19Z" transform="translate(-22.27 -14.85)"/><path class="k" d="M48,34.06l-.62-.19c.82-.37,1.1-1.26,2.05-1.12.11,0,.25-.16.37-.25A1.81,1.81,0,0,1,48,34.06Z" transform="translate(-22.27 -14.85)"/><path class="ae" d="M40.83,78.34c-.19.57-.41,1.15-.56,1.73,0,.1.24.4.35.39a7.92,7.92,0,0,0,1.05-.32v.12a2.25,2.25,0,0,1-.44.48,1.29,1.29,0,0,1-.76.21c-.4-.09-.77-.33-.63-.87l.27-1.15A.69.69,0,0,1,40.83,78.34Z" transform="translate(-22.27 -14.85)"/><path class="o" d="M41.43,60.82v.12a3.74,3.74,0,0,1-.52.28c-.24.07-.65.18-.71.09A1.33,1.33,0,0,1,40,60.4a1.62,1.62,0,0,1,1.22-1.26c-.09.13-.17.26-.27.39C40.36,60.28,40.5,60.64,41.43,60.82Z" transform="translate(-22.27 -14.85)"/><path class="ad" d="M40.83,90.57C40.69,92,40.71,92,42,91.46l.11,0v.13c-.67.41-1.25,1-2.17.8A1.48,1.48,0,0,1,40.83,90.57Z" transform="translate(-22.27 -14.85)"/><path class="n" d="M41.43,46.78h.12l.12.6-.48.36a4,4,0,0,0-.68-.26c-.37-.08-.52-.26-.38-.63a7.8,7.8,0,0,1,.57-1.36,2.9,2.9,0,0,1,.85-.63c-.27.34-.56.67-.81,1A.81.81,0,0,0,40.93,47S41.26,46.84,41.43,46.78Z" transform="translate(-22.27 -14.85)"/><path class="ai" d="M42.27,88.77l-1.08.6a7.61,7.61,0,0,0,.61-.91,2.42,2.42,0,0,0,.13-.72l-.62,0,1.08-.61.6.27-.6,1.3Z" transform="translate(-22.27 -14.85)"/><path class="ae" d="M40,76.18h.12a1,1,0,0,0,0,.35c.07.31.17.62.25.93.25-.11.5-.21.74-.33l1.07-.59-.68.83a1.06,1.06,0,0,1-1.41.37A1.24,1.24,0,0,1,40,76.18Z" transform="translate(-22.27 -14.85)"/><path class="ad" d="M42.39,88.66l.6-1.3-.6-.27.36-.24h0l.64-.08C43.47,88.47,43.49,88.15,42.39,88.66Z" transform="translate(-22.27 -14.85)"/><path class="ae" d="M46.23,34.66v.24l-2.16.72h-1l1.17-.37Z" transform="translate(-22.27 -14.85)"/><path class="n" d="M40.71,54.1l-.72.84a2,2,0,0,1,.83-1.5,7.84,7.84,0,0,0,.61-.54l.25-.12Z" transform="translate(-22.27 -14.85)"/><path class="c" d="M44.43,33.7l-1.2.48-.72.23v-.35a6.83,6.83,0,0,0,1-.31.72.72,0,0,0,.38-.5,13.8,13.8,0,0,0-.26-1.69c0-.12-.16-.2-.25-.3-.1.1-.26.19-.29.31-.08.29,0,.6-.14.88s-.31.83-.47,1.25c0-.36-.07-.72-.11-1.07a14.71,14.71,0,0,0-1-5.08A14.69,14.69,0,0,1,41,20.8a.87.87,0,0,1,.19-.4c.18.76-.15,1.56.27,2.37l.17-.24a4.11,4.11,0,0,1,.29-.3c.08.12.23.24.24.36,0,.37,0,.75,0,1.13v1.19h.24l.2-1.18c.16.9.38,1.78.45,2.69a18.36,18.36,0,0,0,1.11,3.91A6.12,6.12,0,0,0,44.43,33.7Z" transform="translate(-22.27 -14.85)"/><path class="x" d="M42.15,18.59l1-1,.39,0c.22,0,.53-.05.63.07a.74.74,0,0,1,0,.64c-.2.49-.46,1-.7,1.43l-.12.12-1.26.15-.42-.39Z" transform="translate(-22.27 -14.85)"/><path class="m" d="M41.67,19.66l.42.39,1.26-.15-.72.84c-.15.19-.28.38-.44.56s-.24.28-.32.26a.46.46,0,0,1-.29-.32c0-.48,0-1,0-1.46Z" transform="translate(-22.27 -14.85)"/><path class="af" d="M43.47,19.78c.24-.47.5-.94.7-1.43a.74.74,0,0,0,0-.64c-.1-.12-.41-.06-.63-.07l-.39,0,1.32-.24c.49.09.44.49.48.84l-1.08,1.32Z" transform="translate(-22.27 -14.85)"/><path class="c" d="M43.47,19.78l.36-.24-1.2,2.4v-1.2l.72-.84Z" transform="translate(-22.27 -14.85)"/><path class="n" d="M36.64,32.62A10.17,10.17,0,0,1,36,31.08c-.17-.71-.23-1.45-.33-2.18a3,3,0,0,1,.32,1,3.1,3.1,0,0,0,.54,1.77C36.7,31.87,36.61,32.28,36.64,32.62Z" transform="translate(-22.27 -14.85)"/><path class="c" d="M44.91,18.22c0-.35,0-.75-.48-.84l-.65-.19v-.12l.89-.05.91,1.07Z" transform="translate(-22.27 -14.85)"/><path class="c" d="M41.67,19.66l-.12.12-.22-.14L42,18.48l.13.11Z" transform="translate(-22.27 -14.85)"/><path class="w" d="M42.51,34.41l.72-.23c.88,0,1.77-.11,2.65-.14a2.05,2.05,0,0,1,.54.1l-.19.52-1.95.59-1.17.37c-.39.22-.77.47-1.19.66a7,7,0,0,1-1,.29c0-.36,0-.6,0-.83Z" transform="translate(-22.27 -14.85)"/><path class="al" d="M43,41.74c.07.07.27.19.26.25a2.73,2.73,0,0,1-.49,1.15,5.2,5.2,0,0,1-1.42.85c-.16.08-.4,0-.6,0a3.2,3.2,0,0,1,0-.54C41.1,42.36,42,42.08,43,41.74Z" transform="translate(-22.27 -14.85)"/><path class="m" d="M42.63,36.82a9.35,9.35,0,0,1,1.07.29.63.63,0,0,1-.05.51,22.19,22.19,0,0,1-2.06,1.68c-.21.14-.62,0-.92,0a.51.51,0,0,1-.15-.44,12.06,12.06,0,0,1,.67-1.16c-.13.48-.09.88.49,1,.42.08.87-.36.91-.88C42.62,37.45,42.62,37.14,42.63,36.82Z" transform="translate(-22.27 -14.85)"/><path class="ae" d="M42,39.46a.88.88,0,0,1,1.16,0,.68.68,0,0,1,.19.55,1,1,0,0,1-.34.51c-.51.4-1,.78-1.55,1.16a4.76,4.76,0,0,1-.65-.06.85.85,0,0,1-.52-.25.56.56,0,0,1,.08-.51,4.17,4.17,0,0,1,.67-.58l.6.88c.3-.21.79-.38.85-.64A.87.87,0,0,0,42,39.46Z" transform="translate(-22.27 -14.85)"/><path class="w" d="M42.63,36.82c0,.32,0,.63,0,1,0,.52-.49,1-.91.88-.58-.11-.62-.51-.49-1Z" transform="translate(-22.27 -14.85)"/><path class="aa" d="M42,39.46a.87.87,0,0,1,.49,1.08c-.06.26-.55.43-.85.64l-.6-.88Z" transform="translate(-22.27 -14.85)"/><path class="am" d="M58.33,18.1l.12.48c-.41,0-.81,0-1.21,0a5.11,5.11,0,0,0-1.16-.08A9.56,9.56,0,0,0,54,19a2.78,2.78,0,0,0-.93.85,5.31,5.31,0,0,0-.52.86V20.5l1.08-1.92c.14-.14.25-.34.42-.4a18.52,18.52,0,0,1,2.41-.72,21.57,21.57,0,0,1,2.41-.21s.06.05.28.24Z" transform="translate(-22.27 -14.85)"/><path class="am" d="M59.65,18.7l1.44-.36Q60.38,19.18,59.65,18.7Z" transform="translate(-22.27 -14.85)"/><path class="z" d="M42.39,102.34c.62,0,.47.45.48.8a2.8,2.8,0,0,1-.12.63l-.6.25c-.66-.37-1-.27-1.47.42-.22.33-.43.61-.8.17-.12-.72.42-1.09.85-1.49a4.53,4.53,0,0,1,.7-.43Z" transform="translate(-22.27 -14.85)"/><path class="an" d="M41.31,109.41c-.37.17-.73.35-1.1.5-.1,0-.28,0-.32,0a.43.43,0,0,1-.09-.37,7.49,7.49,0,0,1,.44-.84h.11c.66-.21,1.27-.84,2-.38Z" transform="translate(-22.27 -14.85)"/><path class="ai" d="M41.31,109.41l1-1.1c-.72-.46-1.33.17-2,.38a5.58,5.58,0,0,1,.6-.49c.39-.22.8-.39,1.2-.59h1.72l-.76.84c-.33.2-.66.41-1,.6S41.58,109.29,41.31,109.41Z" transform="translate(-22.27 -14.85)"/><path class="al" d="M40.11,111.09l.48-.24c-.18.26-.38.5-.55.77-.06.08-.08.27,0,.31a.44.44,0,0,0,.35.09,1.47,1.47,0,0,0,.36-.21l2.51-1.32h0c-.65.48-1.28,1-2,1.42a18,18,0,0,1-1.83.85l.08-1.19Z" transform="translate(-22.27 -14.85)"/><path class="s" d="M39.88,104.61c.37.44.58.16.8-.17.47-.69.81-.79,1.47-.42-.66.43-1.31.86-2,1.28a.47.47,0,0,1-.3,0C39.86,105.06,39.87,104.84,39.88,104.61Z" transform="translate(-22.27 -14.85)"/><path class="m" d="M31.73,17.14l.36.12v.12c0,.13,0,.35-.07.37-.48.15-1,.27-1.48.4,0-.44-.06-.83-.68-.63-.06,0-.19-.17-.29-.26h0a2.29,2.29,0,0,1,1.58.24C31.22,17.55,31.53,17.27,31.73,17.14Z" transform="translate(-22.27 -14.85)"/><path class="j" d="M44.43,33.7a6.12,6.12,0,0,1-.36-3.36l.36-.24.36,2.76C44.76,33.18,44.88,33.56,44.43,33.7Z" transform="translate(-22.27 -14.85)"/><path class="x" d="M51,28.42c-.38.13-.46-.07-.44-.4.07-1.06.15-2.13.18-3.2a3.32,3.32,0,0,0-.19-.8c-.09-.45-.36-.92.3-1.22.12-.05.16-.49.1-.71-.2-.63.21-.93.67-1.3l.1.79c-.16.92-.36,1.83-.45,2.75C51.16,25.69,51.11,27.06,51,28.42Z" transform="translate(-22.27 -14.85)"/><path class="y" d="M42.15,111.81a7.49,7.49,0,0,1,.82,0,4.17,4.17,0,0,1,.57.18l-.31.51-.24.24-3,1.34a.56.56,0,0,1,0-.92C40.71,112.69,41.44,112.27,42.15,111.81Z" transform="translate(-22.27 -14.85)"/><path class="al" d="M41.08,116.13l-.82-.22c.53-.66,1.49-.85,1.41-1.82.28-.13.51-.11.6.24-.26.34-.54.68-.78,1A5.68,5.68,0,0,0,41.08,116.13Z" transform="translate(-22.27 -14.85)"/><path class="z" d="M31.73,17.14c-.2.13-.51.41-.58.36a2.29,2.29,0,0,0-1.58-.24,3.07,3.07,0,0,1-.41-.48,1.43,1.43,0,0,1-.07-.48,2.89,2.89,0,0,0,.73-.18,1,1,0,0,1,1.23.28A9.62,9.62,0,0,1,31.73,17.14Z" transform="translate(-22.27 -14.85)"/><path class="b" d="M26.7,16.18l.84-.72.9.58-.08.14Z" transform="translate(-22.27 -14.85)"/><path class="ab" d="M58.33,18.1l.85-.61c-.22-.19-.25-.24-.28-.24a21.57,21.57,0,0,0-2.41.21,18.52,18.52,0,0,0-2.41.72c-.17.06-.28.26-.42.4l-.48-.24,1.19-1.56c.43-.14.86-.31,1.29-.43a1.57,1.57,0,0,1,.8-.05,1.07,1.07,0,0,0,1.25-.42,4.62,4.62,0,0,1,.62-.54l-.15.45-.24.56c.19,0,.42.17.59.11a12.07,12.07,0,0,0,1.24-.52v.87l.91-.67c.06.35.06.35-.55,1.12l-1.56.84Z" transform="translate(-22.27 -14.85)"/><path class="m" d="M42.51,33.7c.16-.42.34-.82.47-1.25s.06-.59.14-.88c0-.12.19-.21.29-.31.09.1.23.18.25.3a13.8,13.8,0,0,1,.26,1.69.72.72,0,0,1-.38.5,6.83,6.83,0,0,1-1,.31Z" transform="translate(-22.27 -14.85)"/><path class="ao" d="M59.77,15.94a12.07,12.07,0,0,1-1.24.52c-.17.06-.4-.07-.59-.11l.24-.56.15-.45-.24-.12c.39,0,.78,0,1.16,0,.22,0,.43,0,.65.06l2.71.32c.06,0,.11.08.15.11a16.41,16.41,0,0,1-1.72.16,2.82,2.82,0,0,1-.86-.31Z" transform="translate(-22.27 -14.85)"/><path class="x" d="M42.63,70.18c-.69.17-1.37.36-2.06.48-.11,0-.36-.31-.39-.5a5.43,5.43,0,0,1,.06-1.06l.23-.12c-.29.65.27.83.61,1.16s.69.12,1-.08.76-.44.64-1c-.07-.31-.14-.61-.2-.89l-1.76.43a3.28,3.28,0,0,1,2.41-.91.49.49,0,0,1,.52.7,8.53,8.53,0,0,1-.53.85C42.94,69.56,42.79,69.87,42.63,70.18Z" transform="translate(-22.27 -14.85)"/><path class="ap" d="M40.71,68.62l1.76-.43c.06.28.13.58.2.89.12.54-.33.74-.64,1s-.57.45-1,.08-.9-.51-.61-1.16Z" transform="translate(-22.27 -14.85)"/><path class="ac" d="M43.23,110.49l-2.51,1.32a1.47,1.47,0,0,1-.36.21.44.44,0,0,1-.35-.09s0-.23,0-.31c.17-.27.37-.51.55-.77l2.29-1.44C43.58,109.58,43.24,110.09,43.23,110.49Z" transform="translate(-22.27 -14.85)"/><path class="ap" d="M42,57.46a3.6,3.6,0,0,0-.7.3c-.39.24-.63.17-.7-.28a1.13,1.13,0,0,1,.09-.63A3.76,3.76,0,0,1,43,55.45c-.35.73-.66,1.37-1,2Z" transform="translate(-22.27 -14.85)"/><path class="w" d="M40.71,54.1l1-1.32,1.19-.48a.93.93,0,0,1,.3,1.3,17,17,0,0,1-1.48,1.18l-.11,0-.91.35Z" transform="translate(-22.27 -14.85)"/><path class="aq" d="M68.76,26.26h15A37.6,37.6,0,0,1,95.3,27.79,18.16,18.16,0,0,1,103,33a32.83,32.83,0,0,1,7.27,14.65q2.16,8.73,2.17,25,0,14.94-2.41,24.37-2.34,9-7.73,13.77-6.61,5.93-23.73,5.92H68.76Zm12.18,79.81q11.13,0,14.89-6.74t3.86-26.19q0-20.93-3.69-28.77T82.47,36.52H80.94Z" transform="translate(-22.27 -14.85)"/><path class="aq" d="M147.39,96.28h10.43q-1.23,21.39-17.58,21.39a17.87,17.87,0,0,1-8.35-1.82,14.58,14.58,0,0,1-5.77-5.62,29,29,0,0,1-3.37-9.67,78,78,0,0,1-1.08-13.94q0-16.07,4.48-23.79T140,55.09q18.21,0,18.22,32.11v1.41H132.62q0,19.45,7.74,19.45Q147.38,108.06,147.39,96.28Zm-.59-15.76Q146.1,71,144.63,68a5.11,5.11,0,0,0-4.92-3.34A5.05,5.05,0,0,0,134.79,68q-1.47,3-2.17,12.54Z" transform="translate(-22.27 -14.85)"/><path class="aq" d="M168.19,17.18h11.19v99.55H168.19Z" transform="translate(-22.27 -14.85)"/><path class="aq" d="M192.1,141.58V56.09h11.19v7.85c1.56-3.32,3.16-5.63,4.8-6.91a10.13,10.13,0,0,1,6.45-1.94q7.5,0,11,7.77T229,87.14q0,16.17-3.57,23.26-3.52,7.27-11.31,7.27A10.42,10.42,0,0,1,208,116a11,11,0,0,1-2.35-2.34,28.23,28.23,0,0,1-2.34-3.69v31.64Zm25.31-54.85q0-12.36-1.64-16.76c-1.06-3.16-3-4.74-5.69-4.74-2.57,0-4.41,1.64-5.5,4.92q-1.65,4.57-1.64,16.29t1.64,16.29q1.69,4.86,5.5,4.86c2.66,0,4.55-1.56,5.69-4.69Q217.41,98.57,217.41,86.73Z" transform="translate(-22.27 -14.85)"/><path class="aq" d="M239.44,17.18h11.19V63.06q4.8-8,12.42-8,7.4,0,10.55,5.8,1.75,3.28,1.76,12.72v43.12H264.17l-.06-40.54q0-6.16-1.47-8.74t-5-2.57a7.08,7.08,0,0,0-3.25.67,5.09,5.09,0,0,0-2.14,2.17,12.31,12.31,0,0,0-1.2,3.9,39.09,39.09,0,0,0-.38,5.91v39.2H239.44Z" transform="translate(-22.27 -14.85)"/><circle class="ar" cx="277.36" cy="25.17" r="10.37"/><circle class="as" cx="264.71" cy="25.17" r="10.37"/><circle class="at" cx="270.82" cy="13.83" r="10.37"/><rect class="aq" x="265.71" y="40.56" width="12.65" height="61.32"/></g></svg>